<svg width="680" height="360" viewBox="0 0 680 360" xmlns="http://www.w3.org/2000/svg">
  <rect width="680" height="360" fill="white"/>

  <!-- BRIDGE in silver -->
  <g stroke="#c8c8c8" fill="#c8c8c8">
    <rect x="80" y="222" width="520" height="6" rx="0" stroke="none"/>
    <path d="M268,222 Q272,180 340,172 Q408,180 412,222 Z" stroke="none"/>
    <path d="M278,222 Q282,188 340,181 Q398,188 402,222 Z" fill="#888888" stroke="none"/>
    <rect x="268" y="219" width="144" height="5" rx="2" stroke="none"/>
    <path d="M334,174 L346,174 L343,88 L337,88 Z" stroke="none"/>
    <polygon points="337,88 343,88 340,74" stroke="none"/>

    <line x1="340" y1="76" x2="80"  y2="222" stroke-width="1.3" fill="none"/>
    <line x1="340" y1="76" x2="110" y2="222" stroke-width="1.3" fill="none"/>
    <line x1="340" y1="76" x2="144" y2="222" stroke-width="1.3" fill="none"/>
    <line x1="340" y1="76" x2="180" y2="222" stroke-width="1.3" fill="none"/>
    <line x1="340" y1="76" x2="216" y2="222" stroke-width="1.3" fill="none"/>
    <line x1="340" y1="76" x2="252" y2="222" stroke-width="1.3" fill="none"/>
    <line x1="340" y1="76" x2="274" y2="210" stroke-width="1.1" fill="none"/>
    <line x1="340" y1="76" x2="288" y2="196" stroke-width="1.1" fill="none"/>
    <line x1="340" y1="76" x2="308" y2="184" stroke-width="1.1" fill="none"/>

    <line x1="340" y1="76" x2="600" y2="222" stroke-width="1.3" fill="none"/>
    <line x1="340" y1="76" x2="570" y2="222" stroke-width="1.3" fill="none"/>
    <line x1="340" y1="76" x2="536" y2="222" stroke-width="1.3" fill="none"/>
    <line x1="340" y1="76" x2="500" y2="222" stroke-width="1.3" fill="none"/>
    <line x1="340" y1="76" x2="464" y2="222" stroke-width="1.3" fill="none"/>
    <line x1="340" y1="76" x2="428" y2="222" stroke-width="1.3" fill="none"/>
    <line x1="340" y1="76" x2="406" y2="210" stroke-width="1.1" fill="none"/>
    <line x1="340" y1="76" x2="392" y2="196" stroke-width="1.1" fill="none"/>
    <line x1="340" y1="76" x2="372" y2="184" stroke-width="1.1" fill="none"/>
  </g>

  <!-- PEG CITY -->
  <text x="340" y="272" text-anchor="middle"
    font-family="Arial, Helvetica, sans-serif" font-weight="500" font-size="52" letter-spacing="-1"
    fill="#111111">PEG CITY</text>

  <!-- Gold rule -->
  <line x1="120" y1="282" x2="560" y2="282" stroke="#e8c830" stroke-width="2"/>

  <!-- POUCHES -->
  <text x="340" y="318" text-anchor="middle"
    font-family="Arial, Helvetica, sans-serif" font-weight="400" font-size="22" letter-spacing="10"
    fill="#e8c830">POUCHES</text>
</svg>
